<?xml version="1.0" standalone="no"?>
<!DOCTYPE svg PUBLIC "-//W3C//DTD SVG 20010904//EN"
 "http://www.w3.org/TR/2001/REC-SVG-20010904/DTD/svg10.dtd">
<svg version="1.0" xmlns="http://www.w3.org/2000/svg"
 width="512.000000pt" height="512.000000pt" viewBox="0 0 512.000000 512.000000"
 preserveAspectRatio="xMidYMid meet">

<g transform="translate(0.000000,512.000000) scale(0.100000,-0.100000)"
fill="#000000" stroke="none">
<path d="M2400 5114 c-205 -24 -358 -59 -522 -118 -464 -168 -862 -528 -1086
-981 -96 -194 -169 -442 -193 -655 -16 -144 -6 -468 20 -631 54 -337 160 -667
312 -970 290 -579 776 -1154 1349 -1595 268 -206 283 -208 497 -47 677 507
1219 1171 1503 1838 154 361 236 727 247 1100 7 233 -4 351 -49 540 -87 367
-262 679 -528 945 -296 297 -665 485 -1084 556 -88 14 -395 27 -466 18z m375
-365 c593 -70 1124 -508 1318 -1090 90 -268 108 -547 56 -889 -59 -387 -210
-776 -450 -1157 -247 -393 -618 -803 -1007 -1114 -68 -55 -128 -99 -133 -99
-11 0 -243 186 -329 264 -625 570 -1042 1206 -1205 1841 -88 343 -106 697 -49
974 33 161 127 393 212 525 200 310 496 549 825 665 254 89 479 113 762 80z"/>
<path d="M2266 4250 c-58 -23 -119 -78 -148 -135 -13 -24 -23 -67 -26 -108 -6
-79 12 -134 64 -203 l34 -44 0 -798 c0 -517 4 -810 10 -834 19 -69 102 -137
165 -138 76 0 155 61 174 135 7 28 11 178 11 417 l0 373 358 178 c196 99 377
192 403 208 57 36 89 91 89 153 0 54 -16 90 -57 128 -15 14 -178 101 -360 192
l-333 166 0 58 c-1 190 -203 323 -384 252z m429 -727 l135 -68 -132 -67 c-73
-37 -136 -67 -140 -67 -5 -1 -8 60 -8 134 0 74 2 135 5 135 3 0 66 -30 140
-67z"/>
</g>
</svg>
